<mxfile host="app.diagrams.net" agent="Mozilla/5.0 (Windows NT 10.0; Win64; x64) AppleWebKit/537.36 (KHTML, like Gecko) Chrome/129.0.0.0 Safari/537.36" version="24.8.2">
  <diagram name="Página-1" id="r5XhGZxYWtpD0l__VyBy">
    <mxGraphModel grid="0" page="1" gridSize="10" guides="1" tooltips="1" connect="1" arrows="1" fold="1" pageScale="1" pageWidth="827" pageHeight="1169" math="0" shadow="0">
      <root>
        <mxCell id="0" />
        <mxCell id="1" parent="0" />
        <mxCell id="jXdZrEpv5zFHHM0A_ia6-14" style="edgeStyle=orthogonalEdgeStyle;rounded=0;orthogonalLoop=1;jettySize=auto;html=1;" edge="1" parent="1" source="jXdZrEpv5zFHHM0A_ia6-1" target="jXdZrEpv5zFHHM0A_ia6-2">
          <mxGeometry relative="1" as="geometry" />
        </mxCell>
        <mxCell id="jXdZrEpv5zFHHM0A_ia6-15" style="edgeStyle=orthogonalEdgeStyle;rounded=0;orthogonalLoop=1;jettySize=auto;html=1;" edge="1" parent="1" source="jXdZrEpv5zFHHM0A_ia6-1" target="jXdZrEpv5zFHHM0A_ia6-10">
          <mxGeometry relative="1" as="geometry" />
        </mxCell>
        <mxCell id="jXdZrEpv5zFHHM0A_ia6-16" style="edgeStyle=orthogonalEdgeStyle;rounded=0;orthogonalLoop=1;jettySize=auto;html=1;" edge="1" parent="1" source="jXdZrEpv5zFHHM0A_ia6-1" target="jXdZrEpv5zFHHM0A_ia6-11">
          <mxGeometry relative="1" as="geometry" />
        </mxCell>
        <mxCell id="jXdZrEpv5zFHHM0A_ia6-17" style="edgeStyle=orthogonalEdgeStyle;rounded=0;orthogonalLoop=1;jettySize=auto;html=1;" edge="1" parent="1" source="jXdZrEpv5zFHHM0A_ia6-1" target="jXdZrEpv5zFHHM0A_ia6-12">
          <mxGeometry relative="1" as="geometry" />
        </mxCell>
        <mxCell id="jXdZrEpv5zFHHM0A_ia6-1" value="Escapadas a tu medida" style="rounded=0;whiteSpace=wrap;html=1;" vertex="1" parent="1">
          <mxGeometry x="256" y="248" width="155" height="33" as="geometry" />
        </mxCell>
        <mxCell id="jXdZrEpv5zFHHM0A_ia6-21" style="edgeStyle=orthogonalEdgeStyle;rounded=0;orthogonalLoop=1;jettySize=auto;html=1;exitX=0;exitY=1;exitDx=0;exitDy=0;entryX=0;entryY=0.5;entryDx=0;entryDy=0;" edge="1" parent="1" source="jXdZrEpv5zFHHM0A_ia6-2" target="jXdZrEpv5zFHHM0A_ia6-20">
          <mxGeometry relative="1" as="geometry">
            <Array as="points">
              <mxPoint x="119" y="423" />
            </Array>
          </mxGeometry>
        </mxCell>
        <mxCell id="jXdZrEpv5zFHHM0A_ia6-25" style="edgeStyle=orthogonalEdgeStyle;rounded=0;orthogonalLoop=1;jettySize=auto;html=1;exitX=0;exitY=1;exitDx=0;exitDy=0;" edge="1" parent="1" source="jXdZrEpv5zFHHM0A_ia6-2" target="jXdZrEpv5zFHHM0A_ia6-22">
          <mxGeometry relative="1" as="geometry">
            <Array as="points">
              <mxPoint x="119" y="460" />
            </Array>
          </mxGeometry>
        </mxCell>
        <mxCell id="jXdZrEpv5zFHHM0A_ia6-26" style="edgeStyle=orthogonalEdgeStyle;rounded=0;orthogonalLoop=1;jettySize=auto;html=1;exitX=0;exitY=1;exitDx=0;exitDy=0;" edge="1" parent="1" source="jXdZrEpv5zFHHM0A_ia6-2" target="jXdZrEpv5zFHHM0A_ia6-23">
          <mxGeometry relative="1" as="geometry">
            <Array as="points">
              <mxPoint x="119" y="501" />
            </Array>
          </mxGeometry>
        </mxCell>
        <mxCell id="nwjV-LNhlnBEkXLPuUKB-2" style="edgeStyle=orthogonalEdgeStyle;rounded=0;orthogonalLoop=1;jettySize=auto;html=1;exitX=0;exitY=1;exitDx=0;exitDy=0;" edge="1" parent="1" source="jXdZrEpv5zFHHM0A_ia6-2" target="nwjV-LNhlnBEkXLPuUKB-1">
          <mxGeometry relative="1" as="geometry">
            <Array as="points">
              <mxPoint x="119" y="540" />
            </Array>
          </mxGeometry>
        </mxCell>
        <mxCell id="jXdZrEpv5zFHHM0A_ia6-2" value="RRHH" style="rounded=0;whiteSpace=wrap;html=1;" vertex="1" parent="1">
          <mxGeometry x="119" y="347" width="92" height="34" as="geometry" />
        </mxCell>
        <mxCell id="jXdZrEpv5zFHHM0A_ia6-30" style="edgeStyle=orthogonalEdgeStyle;rounded=0;orthogonalLoop=1;jettySize=auto;html=1;exitX=0;exitY=1;exitDx=0;exitDy=0;" edge="1" parent="1" source="jXdZrEpv5zFHHM0A_ia6-10" target="jXdZrEpv5zFHHM0A_ia6-28">
          <mxGeometry relative="1" as="geometry">
            <Array as="points">
              <mxPoint x="229" y="422" />
            </Array>
          </mxGeometry>
        </mxCell>
        <mxCell id="jXdZrEpv5zFHHM0A_ia6-10" value="Equipos" style="rounded=0;whiteSpace=wrap;html=1;" vertex="1" parent="1">
          <mxGeometry x="229" y="347" width="92" height="34" as="geometry" />
        </mxCell>
        <mxCell id="jXdZrEpv5zFHHM0A_ia6-37" style="edgeStyle=orthogonalEdgeStyle;rounded=0;orthogonalLoop=1;jettySize=auto;html=1;exitX=0;exitY=1;exitDx=0;exitDy=0;" edge="1" parent="1" source="jXdZrEpv5zFHHM0A_ia6-11" target="jXdZrEpv5zFHHM0A_ia6-32">
          <mxGeometry relative="1" as="geometry">
            <Array as="points">
              <mxPoint x="339" y="423" />
            </Array>
          </mxGeometry>
        </mxCell>
        <mxCell id="jXdZrEpv5zFHHM0A_ia6-38" style="edgeStyle=orthogonalEdgeStyle;rounded=0;orthogonalLoop=1;jettySize=auto;html=1;" edge="1" parent="1" source="jXdZrEpv5zFHHM0A_ia6-11" target="jXdZrEpv5zFHHM0A_ia6-33">
          <mxGeometry relative="1" as="geometry">
            <Array as="points">
              <mxPoint x="339" y="462" />
            </Array>
          </mxGeometry>
        </mxCell>
        <mxCell id="jXdZrEpv5zFHHM0A_ia6-39" style="edgeStyle=orthogonalEdgeStyle;rounded=0;orthogonalLoop=1;jettySize=auto;html=1;exitX=0;exitY=1;exitDx=0;exitDy=0;" edge="1" parent="1" source="jXdZrEpv5zFHHM0A_ia6-11" target="jXdZrEpv5zFHHM0A_ia6-34">
          <mxGeometry relative="1" as="geometry">
            <Array as="points">
              <mxPoint x="339" y="502" />
            </Array>
          </mxGeometry>
        </mxCell>
        <mxCell id="jXdZrEpv5zFHHM0A_ia6-11" value="Materiales" style="rounded=0;whiteSpace=wrap;html=1;" vertex="1" parent="1">
          <mxGeometry x="339" y="347" width="92" height="34" as="geometry" />
        </mxCell>
        <mxCell id="jXdZrEpv5zFHHM0A_ia6-40" style="edgeStyle=orthogonalEdgeStyle;rounded=0;orthogonalLoop=1;jettySize=auto;html=1;exitX=0;exitY=1;exitDx=0;exitDy=0;" edge="1" parent="1" source="jXdZrEpv5zFHHM0A_ia6-12" target="jXdZrEpv5zFHHM0A_ia6-35">
          <mxGeometry relative="1" as="geometry">
            <Array as="points">
              <mxPoint x="449" y="421" />
            </Array>
          </mxGeometry>
        </mxCell>
        <mxCell id="jXdZrEpv5zFHHM0A_ia6-41" style="edgeStyle=orthogonalEdgeStyle;rounded=0;orthogonalLoop=1;jettySize=auto;html=1;" edge="1" parent="1" source="jXdZrEpv5zFHHM0A_ia6-12" target="jXdZrEpv5zFHHM0A_ia6-36">
          <mxGeometry relative="1" as="geometry">
            <Array as="points">
              <mxPoint x="449" y="460" />
              <mxPoint x="449" y="460" />
            </Array>
          </mxGeometry>
        </mxCell>
        <mxCell id="jXdZrEpv5zFHHM0A_ia6-12" value="Suministros" style="rounded=0;whiteSpace=wrap;html=1;" vertex="1" parent="1">
          <mxGeometry x="449" y="347" width="92" height="34" as="geometry" />
        </mxCell>
        <mxCell id="jXdZrEpv5zFHHM0A_ia6-20" value="Director del proyecto" style="rounded=0;whiteSpace=wrap;html=1;align=center;" vertex="1" parent="1">
          <mxGeometry x="136" y="409" width="75" height="27" as="geometry" />
        </mxCell>
        <mxCell id="jXdZrEpv5zFHHM0A_ia6-22" value="Directivo" style="rounded=0;whiteSpace=wrap;html=1;" vertex="1" parent="1">
          <mxGeometry x="136" y="448" width="75" height="27" as="geometry" />
        </mxCell>
        <mxCell id="jXdZrEpv5zFHHM0A_ia6-23" value="Desarrollador" style="rounded=0;whiteSpace=wrap;html=1;" vertex="1" parent="1">
          <mxGeometry x="136" y="487" width="75" height="27" as="geometry" />
        </mxCell>
        <mxCell id="jXdZrEpv5zFHHM0A_ia6-28" value="Laptop" style="rounded=0;whiteSpace=wrap;html=1;align=center;" vertex="1" parent="1">
          <mxGeometry x="246" y="407" width="75" height="27" as="geometry" />
        </mxCell>
        <mxCell id="jXdZrEpv5zFHHM0A_ia6-32" value="&lt;font style=&quot;font-size: 11px;&quot;&gt;Contenedores&lt;/font&gt;" style="rounded=0;whiteSpace=wrap;html=1;align=center;" vertex="1" parent="1">
          <mxGeometry x="356" y="409" width="75" height="27" as="geometry" />
        </mxCell>
        <mxCell id="jXdZrEpv5zFHHM0A_ia6-33" value="&lt;span style=&quot;font-size: 11px;&quot;&gt;Software&lt;/span&gt;" style="rounded=0;whiteSpace=wrap;html=1;align=center;" vertex="1" parent="1">
          <mxGeometry x="356" y="448" width="75" height="27" as="geometry" />
        </mxCell>
        <mxCell id="jXdZrEpv5zFHHM0A_ia6-34" value="&lt;span style=&quot;font-size: 11px;&quot;&gt;Licencias&lt;/span&gt;" style="rounded=0;whiteSpace=wrap;html=1;align=center;" vertex="1" parent="1">
          <mxGeometry x="356" y="487" width="75" height="27" as="geometry" />
        </mxCell>
        <mxCell id="jXdZrEpv5zFHHM0A_ia6-35" value="&lt;span style=&quot;font-size: 11px;&quot;&gt;Suministro eléctrico&lt;/span&gt;" style="rounded=0;whiteSpace=wrap;html=1;align=center;" vertex="1" parent="1">
          <mxGeometry x="466" y="407" width="75" height="27" as="geometry" />
        </mxCell>
        <mxCell id="jXdZrEpv5zFHHM0A_ia6-36" value="&lt;span style=&quot;font-size: 11px;&quot;&gt;Conexión internet&lt;/span&gt;" style="rounded=0;whiteSpace=wrap;html=1;align=center;" vertex="1" parent="1">
          <mxGeometry x="466" y="448" width="75" height="27" as="geometry" />
        </mxCell>
        <mxCell id="nwjV-LNhlnBEkXLPuUKB-1" value="Tester" style="rounded=0;whiteSpace=wrap;html=1;" vertex="1" parent="1">
          <mxGeometry x="136" y="526" width="75" height="27" as="geometry" />
        </mxCell>
      </root>
    </mxGraphModel>
  </diagram>
</mxfile>
